<?xml version="1.0" encoding="UTF-8"?>
<!DOCTYPE svg PUBLIC "-//W3C//DTD SVG 1.1//EN" "http://www.w3.org/Graphics/SVG/1.1/DTD/svg11.dtd">
<svg xmlns="http://www.w3.org/2000/svg" xml:space="preserve" width="1.08141in" height="0.508598in" version="1.1" style="shape-rendering:geometricPrecision; text-rendering:geometricPrecision; image-rendering:optimizeQuality; fill-rule:evenodd; clip-rule:evenodd"
viewBox="0 0 383.5 180.36"
 xmlns:xlink="http://www.w3.org/1999/xlink">
 <defs>
  <style type="text/css">
   <![CDATA[
    .fil0 {fill:#000000;fill-rule:nonzero}
    .fil1 {fill:#999999;fill-rule:nonzero}
    .fil2 {fill:#999999;fill-rule:nonzero}
    .fil3 {fill:#999999;fill-rule:nonzero}
   ]]>
  </style>
 </defs>
 <g id="Layer_x0020_1">
  <metadata id="CorelCorpID_0Corel-Layer"/>
  <path class="fil0" d="M13.39 180.36l0 -6 30.24 0 0 -160.51 6.93 0 0 166.51 -37.17 0zm73 0l0 -6 30.24 0 0 -70.04 48.85 0 0 6 -41.93 0 0 70.04 -37.17 0zm30.24 -166.51l6.93 0 0 49.63 -6.93 0 0 -49.63zm92.6 0l6.93 0 0 166.51 -37.17 0 0 -6 30.24 0 0 -160.51zm42.34 32.23l0 -6 34 0 0 6 -34 0zm124.99 -32.23l6.93 0 0 32.23 -47.48 0 0 134.28 -36.96 0 0 -6 30.03 0 0 -134.28 47.48 0 0 -26.23z"/>
  <polygon class="fil1" points="238.19,32.23 238.19,0 370.1,0 370.1,32.23 322.62,32.23 322.62,166.51 285.67,166.51 285.67,32.23 "/>
  <polygon class="fil2" points="73,166.51 73,0 110.17,0 110.17,63.6 165.6,63.6 165.6,0 202.77,0 202.77,166.51 165.6,166.51 165.6,96.47 110.17,96.47 110.17,166.51 "/>
  <polygon class="fil3" points="-0,166.51 -0,0 37.17,0 37.17,166.51 "/>
 </g>
</svg>
